<?xml version="1.0" standalone="no"?><!DOCTYPE svg PUBLIC "-//W3C//DTD SVG 1.1//EN" "http://www.w3.org/Graphics/SVG/1.1/DTD/svg11.dtd"><svg class="icon" width="200px" height="182.86px" viewBox="0 0 1120 1024" version="1.1" xmlns="http://www.w3.org/2000/svg"><path d="M238.944 136.544h853.344v614.4H238.944v-614.4z" fill="#9EF0DE" /><path d="M563.2 898.464v-121.952H136.544a25.6 25.6 0 0 1-25.6-25.6l0.032-1.216-0.032-1.216V59.712h-76.8a25.6 25.6 0 1 1 0-51.2h1058.144a25.6 25.6 0 1 1 0 51.2h-76.8v571.744a25.6 25.6 0 1 1-51.2 0V59.712H162.144v665.6h827.744a25.6 25.6 0 1 1 0 51.2H597.344v121.952a59.744 59.744 0 1 1-34.176 0z m54.848-423.072l-134.272-76.736-156.928 188.32a25.6 25.6 0 0 1-39.328-32.8l170.656-204.8a25.6 25.6 0 0 1 32.384-5.824l134.528 76.896 169.728-198.144a25.568 25.568 0 1 1 38.88 33.312l-183.488 214.24a25.6 25.6 0 0 1-32.16 5.568z m-37.792 501.664a21.344 21.344 0 1 0 0-42.688 21.344 21.344 0 0 0 0 42.688z" fill="#21B897" /></svg>