<?xml version="1.0" standalone="no"?><!DOCTYPE svg PUBLIC "-//W3C//DTD SVG 1.1//EN" "http://www.w3.org/Graphics/SVG/1.1/DTD/svg11.dtd"><svg class="icon" width="200px" height="187.55px" viewBox="0 0 1092 1024" version="1.1" xmlns="http://www.w3.org/2000/svg"><path d="M157.536 0h905.856v866.464H157.536V0z" fill="#9EF0DE" /><path d="M1063.392 956.224h-98.688a29.536 29.536 0 1 0 0 59.072h98.688a29.536 29.536 0 1 0 0-59.072zM68.928 39.392v916.832h750.624a29.536 29.536 0 1 1 0 59.072H39.392a29.536 29.536 0 0 1-29.536-29.536V39.36a29.536 29.536 0 1 1 59.072 0z m541.536 831.712h-39.392V452.928h39.392v418.176z m-236.32 0h-39.392V236h39.392v635.104z m472.64 0h-39.392V78.528h39.392v792.576z" fill="#20B997" /></svg>