<?xml version="1.0" standalone="no"?><!DOCTYPE svg PUBLIC "-//W3C//DTD SVG 1.1//EN" "http://www.w3.org/Graphics/SVG/1.1/DTD/svg11.dtd"><svg class="icon" width="200px" height="172.97px" viewBox="0 0 1184 1024" version="1.1" xmlns="http://www.w3.org/2000/svg"><path d="M170.656 189.632h986.08v644.736H170.656V189.632z" fill="#B2D6FF" /><path d="M66.368 66.368v891.264H1024a28.448 28.448 0 1 1 0 56.896H37.92a28.448 28.448 0 0 1-28.448-28.448V37.92c0-15.712 12.736-28.448 28.448-28.448H1024c15.712 0 28.448 12.736 28.448 28.448v758.528a28.448 28.448 0 1 1-56.896 0V66.368H66.368z m140.736 654.24H169.312V309.504h37.792v180h224.448V309.504h35.552v411.104h-35.552v-195.552H207.104v195.552zM573.792 309.472h111.104c139.264 1.472 209.632 70.368 211.104 206.656-1.472 134.816-71.84 202.976-211.104 204.448h-111.104V309.472z m37.76 377.792h82.208c108.16-1.472 162.976-58.528 164.448-171.104-1.472-117.024-64.448-174.08-188.896-171.104H611.52v342.208z" fill="#4990E2" /></svg>