<?xml version="1.0" standalone="no"?><!DOCTYPE svg PUBLIC "-//W3C//DTD SVG 1.1//EN" "http://www.w3.org/Graphics/SVG/1.1/DTD/svg11.dtd"><svg class="icon" width="200px" height="187.55px" viewBox="0 0 1092 1024" version="1.1" xmlns="http://www.w3.org/2000/svg"><path d="M157.536 0h905.856v866.464H157.536V0z" fill="#BADAFF" /><path d="M1063.392 956.224h-98.688a29.536 29.536 0 1 0 0 59.072h98.688a29.536 29.536 0 1 0 0-59.072zM926.56 82.08a29.536 29.536 0 0 1 38.368 28.192v126.016a29.536 29.536 0 1 1-59.072 0V185.792l-292.48 311.552a29.536 29.536 0 0 1-42.624 0.48l-156.96-160-152.8 159.712a29.568 29.568 0 0 1-42.688-40.832l173.888-181.76a29.536 29.536 0 0 1 42.432-0.256l156.736 159.776 275.36-293.312h-47.232a29.536 29.536 0 1 1 0-59.072h107.04zM68.928 39.392v916.832h750.624a29.536 29.536 0 1 1 0 59.072H39.392a29.536 29.536 0 0 1-29.536-29.536V39.36a29.536 29.536 0 1 1 59.072 0zM938.656 877.12h-39.392V385.824h39.392V877.12z m-315.072 0h-39.392v-266.656h39.392v266.656z m-315.072 0.576H269.12v-365.76h39.392v365.76z" fill="#2C92FF" /></svg>