<?xml version="1.0" standalone="no"?><!DOCTYPE svg PUBLIC "-//W3C//DTD SVG 1.1//EN" "http://www.w3.org/Graphics/SVG/1.1/DTD/svg11.dtd"><svg class="icon" width="200px" height="160.00px" viewBox="0 0 1280 1024" version="1.1" xmlns="http://www.w3.org/2000/svg"><path d="M561.12 301.728c-30.144-66.144-75.392-109.92-130.496-117.664-121.92-17.152-246.048 148.704-277.184 370.4s42.432 415.328 164.352 432.448c95.744 13.472 192.832-85.92 245.216-236.544h271.008c52.384 150.656 149.472 250.016 245.216 236.544 121.92-17.152 195.52-210.752 164.352-432.448S1088.32 166.944 966.368 184.064c-55.104 7.744-100.352 51.52-130.496 117.664h-274.784z" fill="#FFD1D7" /><path d="M256 548.576v-109.728h36.576v109.728h109.728v36.576H292.576v109.728H256v-109.728H146.272v-36.576H256z m449.632 234.976h-232.832c-58.72 154.144-162.368 251.36-268.416 236.48-141.408-19.872-220.864-228.896-187.84-463.776S183.52 142.336 324.928 162.24c64.192 9.024 117.12 57.664 151.744 133.536a27.488 27.488 0 0 1-49.92 22.784c-27.488-60.32-66.24-95.904-109.44-101.984-102.656-14.432-217.088 138.464-246.432 347.328s38.496 387.392 141.152 401.824c77.792 10.944 165.952-75.584 215.68-218.592a27.456 27.456 0 0 1 25.92-18.432h271.232c11.68 0 22.08 7.392 25.92 18.432 49.696 142.976 137.888 229.504 215.68 218.592 102.656-14.432 170.496-192.96 141.152-401.824S963.84 202.144 861.184 216.576c-43.232 6.08-81.952 41.664-109.44 101.984a27.392 27.392 0 0 1-24.96 16.064h-129.216a27.424 27.424 0 0 1-27.296-24.832 254.56 254.56 0 0 1 8.992-89.984c11.264-38.08 32.128-68.096 64.992-85.088a90.464 90.464 0 0 0 39.36-39.584c6.048-11.552 9.984-24.16 12.128-36.896 1.344-7.904 1.76-14.112 1.696-17.536a27.392 27.392 0 1 1 54.848-0.768 172.8 172.8 0 0 1-20.096 80.64 145.056 145.056 0 0 1-62.784 62.848c-17.888 9.248-30.208 26.976-37.6 51.904a193.184 193.184 0 0 0-7.232 44.416h84.992c34.528-66.688 84.384-109.12 143.936-117.504 141.408-19.872 275.392 159.136 308.384 394.016s-46.432 443.904-187.84 463.776c-106.048 14.912-209.728-82.336-268.416-236.48z m226.944-52.128a54.848 54.848 0 1 1-0.032-109.664 54.848 54.848 0 0 1 0.032 109.664zM859.424 512a54.848 54.848 0 1 1 0-109.696 54.848 54.848 0 0 1 0 109.696z" fill="#FF596D" /></svg>