<?xml version="1.0" standalone="no"?><!DOCTYPE svg PUBLIC "-//W3C//DTD SVG 1.1//EN" "http://www.w3.org/Graphics/SVG/1.1/DTD/svg11.dtd"><svg class="icon" width="200px" height="188.24px" viewBox="0 0 1088 1024" version="1.1" xmlns="http://www.w3.org/2000/svg"><path d="M575.168 350.944l316.8-316.8 193.088 193.088-319.104 319.104 230.368 235.872 48.928 180.736-191.584-49.792L181.92 241.408a102.4 102.4 0 0 1 144.896-144.768l248.352 254.272z m-1.312 387.488l-247.008 247.008-193.088-193.088 248.32-248.32 191.776 194.4z" fill="#FFD1EB" /><path d="M493.824 691.904l-168.96-168.96-59.552 59.552 83.072 83.072-24.128 24.128-83.072-83.072-78.272 78.272 83.072 83.072-24.128 24.128-83.072-83.072-83.296 83.296 168.96 168.96 269.376-269.376z m24.128 24.128l-281.44 281.44a17.088 17.088 0 0 1-24.128 0L19.296 804.384a17.088 17.088 0 0 1 0-24.128l281.44-281.44L61.44 259.52a128 128 0 0 1 181.184-180.864l238.08 240.256L777.536 22.08a17.088 17.088 0 0 1 24.128 0l115.552 115.552a17.088 17.088 0 0 1-24.128 24.128l-103.488-103.488-80.512 80.512 83.072 83.072-24.128 24.128-83.072-83.072-78.272 78.272 83.072 83.072-24.128 24.128-83.072-83.072-77.824 77.824 168.192 169.728 297.696-297.696a17.088 17.088 0 0 1 24.128 24.128l-297.824 297.824 139.392 140.672a25.6 25.6 0 0 1-0.128 36.16l-80.704 80.416a25.6 25.6 0 1 1-36.128-36.256l62.624-62.4L206.336 114.816A76.8 76.8 0 0 0 97.664 223.36L764.48 890.176l143.552 37.312-24.608-102.4a25.6 25.6 0 1 1 49.792-11.968l34.592 143.904a25.6 25.6 0 0 1-31.328 30.752l-191.584-49.792a25.408 25.408 0 0 1-11.648-6.688l-215.232-215.232z" fill="#FF54B2" /></svg>