<?xml version="1.0" standalone="no"?><!DOCTYPE svg PUBLIC "-//W3C//DTD SVG 1.1//EN" "http://www.w3.org/Graphics/SVG/1.1/DTD/svg11.dtd"><svg class="icon" width="200px" height="177.16px" viewBox="0 0 1156 1024" version="1.1" xmlns="http://www.w3.org/2000/svg"><path d="M918.08 332.16v515.296l-519.456-247.168H229.952a70.304 70.304 0 0 1-70.432-70.56v-141.376a70.4 70.4 0 0 1 70.432-70.56h177.696l510.4-247.168v261.536z m-494.368 303.328v355.584H282.464V600.256l141.248 35.232z" fill="#C6F29A" /><path d="M704.448 731.552l81.216 38.656V296.832a26.496 26.496 0 0 1 52.992 0v515.296a26.464 26.464 0 0 1-37.856 23.904l-421.184-200.416v320.128a26.496 26.496 0 0 1-26.496 26.496H211.872a26.496 26.496 0 0 1-26.496-26.496V591.424H124.032A96.8 96.8 0 0 1 27.104 494.4v-141.376A96.896 96.896 0 0 1 124.032 256h171.616L800.608 11.488a26.464 26.464 0 0 1 38.016 23.84v129.216a26.496 26.496 0 0 1-52.992 0V77.568l-80.832 39.136a17.6 17.6 0 0 1 1.376 6.88v370.08a17.664 17.664 0 1 1-35.328 0V133.152L313.216 306.336a26.688 26.688 0 0 1-11.552 2.656H123.968c-24.32 0-43.968 19.68-43.968 44.064v141.376a43.84 43.84 0 0 0 43.968 44.064h168.672c3.936 0 7.84 0.864 11.392 2.56l366.816 174.56v-122.944a17.664 17.664 0 1 1 35.328 0v131.2c0 2.752-0.64 5.376-1.76 7.712z m-377.824-121.12l-39.904-18.976H238.368v337.856h88.288v-318.848z m728.96 69.568a26.464 26.464 0 0 1-37.44-37.44 291.296 291.296 0 0 0 0-411.968 26.464 26.464 0 0 1 37.44-37.44c134.464 134.432 134.464 352.448 0 486.88z m-99.872-99.872a26.464 26.464 0 0 1-37.44-37.44 150.08 150.08 0 0 0 0-212.224 26.464 26.464 0 0 1 37.44-37.44 203.04 203.04 0 0 1 0 287.136z" fill="#71C812" /></svg>