<?xml version="1.0" standalone="no"?><!DOCTYPE svg PUBLIC "-//W3C//DTD SVG 1.1//EN" "http://www.w3.org/Graphics/SVG/1.1/DTD/svg11.dtd"><svg class="icon" width="200px" height="177.93px" viewBox="0 0 1151 1024" version="1.1" xmlns="http://www.w3.org/2000/svg"><path d="M189.626074 37.950814h872.260742v796.423112H189.626074V37.950814z" fill="#9EF0DE" /><path d="M862.789038 279.287272L398.995531 741.064842a28.447111 28.447111 0 0 1-40.222743-40.222743L824.550233 237.048592h-122.972157a28.447111 28.447111 0 1 1 0-56.894222h189.626074c15.711509 0 28.447111 12.735602 28.447111 28.447111v218.23318a28.447111 28.447111 0 1 1-56.894222 0V279.287272zM56.894222 959.842005h682.634668V538.25518a18.975407 18.975407 0 0 1 37.950814 0v440.562232a18.975407 18.975407 0 0 1-18.975407 18.975407H37.918815a18.975407 18.975407 0 0 1-18.975407-18.975407V344.981219c0-10.463673 8.479735-18.975407 18.975407-18.975407h554.414675a18.975407 18.975407 0 0 1 0 37.950814H56.894222v595.885379zM1052.415112 56.926221H208.601481a28.447111 28.447111 0 1 1 0-56.894222h872.260742c15.711509 0 28.447111 12.735602 28.447111 28.447111v796.423112a28.447111 28.447111 0 1 1-56.894222 0v-767.976001z" fill="#21B897" /></svg>