<?xml version="1.0" standalone="no"?><!DOCTYPE svg PUBLIC "-//W3C//DTD SVG 1.1//EN" "http://www.w3.org/Graphics/SVG/1.1/DTD/svg11.dtd"><svg class="icon" width="200px" height="164.10px" viewBox="0 0 1248 1024" version="1.1" xmlns="http://www.w3.org/2000/svg"><path d="M581.312 847.392l170.336 158.592 462.048-901.12-1054.752 328.32 194.368 186.496 99.616 386.272z" fill="#C7F39A" /><path d="M279.744 552.192a27.264 27.264 0 0 0-8.448-19.616L110.464 378.24l948.032-295.104-415.52 810.368-191.52-181.952a27.456 27.456 0 0 0-37.792 39.776l218.112 207.2a27.424 27.424 0 0 0 43.296-7.36l462.048-901.12c11.104-21.632-9.344-45.92-32.544-38.72L49.824 339.648a27.456 27.456 0 0 0-10.848 45.984l194.368 186.496a26.816 26.816 0 0 0 9.44 5.92 18.24 18.24 0 0 0-0.768 12.384l99.68 339.84a18.24 18.24 0 1 0 35.072-10.304l-95.68-326.176 552.096-325.44a18.272 18.272 0 0 0-18.56-31.488L279.744 552.128z" fill="#71C912" /></svg>