<?xml version="1.0" standalone="no"?><!DOCTYPE svg PUBLIC "-//W3C//DTD SVG 1.1//EN" "http://www.w3.org/Graphics/SVG/1.1/DTD/svg11.dtd"><svg class="icon" width="200px" height="172.54px" viewBox="0 0 1187 1024" version="1.1" xmlns="http://www.w3.org/2000/svg"><path d="M122.88 204.8h1064.96v614.4H122.88V204.8z" fill="#B2D6FF" /><path d="M1136.512 980.352a30.72 30.72 0 0 1-30.592 33.408H40.96a30.72 30.72 0 0 1-30.72-30.72V40.96c0-16.96 13.76-30.72 30.72-30.72h1064.96c16.96 0 30.72 13.76 30.72 30.72v673.408a30.72 30.72 0 0 1-61.44 0V71.68H71.68v403.936l197.792-282.56a20.48 20.48 0 0 1 33.664 0.16L823.168 952.32h254.816l-319.456-466.336-83.52 114.176A20.48 20.48 0 0 1 641.952 576l100.608-137.536a20.48 20.48 0 0 1 33.44 0.512l358.176 522.848a20.48 20.48 0 0 1 2.368 18.528zM71.68 547.04V952.32h701.856L286.08 240.768l-214.4 306.272zM921.6 368.64a61.44 61.44 0 1 1 0.032-122.912 61.44 61.44 0 0 1-0.032 122.912z" fill="#4990E2" /></svg>