<?xml version="1.0" standalone="no"?><!DOCTYPE svg PUBLIC "-//W3C//DTD SVG 1.1//EN" "http://www.w3.org/Graphics/SVG/1.1/DTD/svg11.dtd"><svg class="icon" width="200px" height="163.58px" viewBox="0 0 1252 1024" version="1.1" xmlns="http://www.w3.org/2000/svg"><path d="M1114.4 627.072l53.76-53.76c112.64-112.64 112.704-295.616-0.096-408.448-112.576-112.576-295.68-112.864-408.448-0.096l-53.76 53.76-53.76-53.76c-112.768-112.768-295.84-112.48-408.448 0.096-112.832 112.832-112.736 295.808-0.096 408.448l53.76 53.76-1.92 1.92 324.896 324.896a118.08 118.08 0 0 0 85.568 34.784 118.272 118.272 0 0 0 85.568-34.784l324.896-324.896-1.92-1.92z" fill="#FFD1D7" /><path d="M1025.888 599.84a29.12 29.12 0 0 1-6.848 10.656L694.144 935.392a147.52 147.52 0 0 1-106.464 43.392 147.52 147.52 0 0 1-106.464-43.392L156.32 610.496a29.632 29.632 0 0 1-6.848-10.656l-44.992-44.992C-19.744 430.624-19.712 228.928 104.576 104.64a318.72 318.72 0 0 1 402.592-39.328 29.504 29.504 0 1 1-32.96 49.024A259.68 259.68 0 0 0 146.336 146.4c-101.248 101.248-101.248 265.536-0.096 366.656l380.672 380.672a88.096 88.096 0 0 0 60.736 25.92 88.32 88.32 0 0 0 60.736-25.92l380.672-380.672c101.152-101.152 101.12-265.44-0.096-366.656-101.12-101.12-265.6-101.184-366.176-0.608l-167.04 177.344a29.536 29.536 0 1 1-43.008-40.512l167.648-177.952C744.672-19.616 946.528-19.552 1070.72 104.64c124.32 124.32 124.32 326.016 0.096 450.208l-44.992 44.992zM959.52 213.184a19.712 19.712 0 0 1 27.84-27.84 201.12 201.12 0 0 1 0.064 284.352 19.712 19.712 0 0 1-27.84-27.84 161.76 161.76 0 0 0-0.064-228.672z" fill="#FF596D" /></svg>