<?xml version="1.0" standalone="no"?><!DOCTYPE svg PUBLIC "-//W3C//DTD SVG 1.1//EN" "http://www.w3.org/Graphics/SVG/1.1/DTD/svg11.dtd"><svg class="icon" width="200px" height="187.89px" viewBox="0 0 1090 1024" version="1.1" xmlns="http://www.w3.org/2000/svg"><path d="M273.056 460.704v529.152h264.16v-355.2h250.816v355.2h270.08V460.704L652.384 73.536z" fill="#FFDDA4" /><path d="M196.224 442.432L550.528 88.128l496.672 481.376a25.568 25.568 0 1 0 35.616-36.768L568.032 33.824a25.6 25.6 0 0 0-35.904 0.288L9.056 557.184a25.6 25.6 0 0 0 36.192 36.192l99.744-99.744v496.256a25.6 25.6 0 0 0 25.6 25.6h264.16a25.6 25.6 0 0 0 25.6-25.6V668.448h199.648v321.44a25.6 25.6 0 0 0 25.6 25.6h270.08a25.6 25.6 0 0 0 25.6-25.6V642.848a25.6 25.6 0 1 0-51.2 0v321.44h-218.88V642.848a25.6 25.6 0 0 0-25.6-25.6h-250.816a25.6 25.6 0 0 0-25.6 25.6v321.44H196.224V443.744l-0.032-1.28z" fill="#F6A623" /></svg>